<svg width="16" height="16" viewBox="0 0 16 16" fill="none" xmlns="http://www.w3.org/2000/svg">
<g clip-path="url(#clip0)">
<path d="M15.9414 10.7968L15.9423 10.7959L15.9146 10.7099C15.3035 8.80788 13.4539 7.64905 11.5434 7.83739C11.2967 7.6604 10.9931 7.44302 10.8168 7.31954C11.1015 6.9176 11.6818 5.95901 11.6818 4.58816C11.6818 3.62407 11.3289 2.44307 10.5612 1.50064C9.78965 0.553579 8.60065 -0.15 6.94295 -0.15C4.91817 -0.15 2.20351 1.38861 2.20351 4.5888C2.20351 5.96211 2.77983 6.91283 3.06549 7.31564C1.27345 8.49049 0.479472 10.086 0.136029 11.3972C-0.0398026 12.0684 -0.0978325 12.6658 -0.111921 13.0958C-0.118969 13.3109 -0.11503 13.4845 -0.109259 13.605C-0.106372 13.6652 -0.103026 13.7122 -0.10036 13.7445C-0.0990268 13.7607 -0.0978637 13.7731 -0.0970128 13.7818L-0.0959885 13.7918L-0.0956853 13.7946L-0.0955917 13.7954L-0.0955602 13.7957C-0.0955488 13.7958 -0.0955391 13.7959 0.053494 13.7789L-0.0955391 13.7959L-0.0803647 13.9289H0.053494H8.265C9.18947 15.685 11.2678 16.5774 13.2232 15.9499L13.2232 15.9498C15.3844 15.255 16.586 12.9617 15.9414 10.7968ZM0.791938 13.0428C0.848257 10.665 2.25443 8.62084 4.27349 7.64722L4.70863 7.4374L4.27726 7.37096C3.54513 6.6693 3.08938 5.68285 3.08938 4.58888C3.08938 2.46116 4.81471 0.73568 6.94258 0.73568C9.07048 0.73568 10.7958 2.46038 10.7958 4.58888C10.7958 5.69875 10.3261 6.69902 9.5751 7.40261L9.41545 7.55217L9.6125 7.64719C9.84248 7.75809 10.1327 7.94364 10.391 8.12117C8.45182 8.90174 7.38629 11.0131 7.92187 13.0428H0.791938ZM12.9616 15.1336L12.9616 15.1336C11.2218 15.6926 9.35873 14.7354 8.79974 12.9955L8.65693 13.0414L8.79974 12.9955C8.24073 11.2557 9.19852 9.3926 10.9379 8.83361C12.6771 8.27464 14.5407 9.2318 15.0997 10.9717C15.6581 12.7116 14.7009 14.5752 12.9616 15.1336ZM13.0441 14.0721L13.15 14.1774L13.2558 14.0721L14.0227 13.309L14.1295 13.2027L14.0227 13.0964L12.919 11.9966L14.0163 10.8954L14.1217 10.7895L14.0163 10.6837L13.2525 9.91679L13.1463 9.8101L13.04 9.91677L11.9402 11.0205L10.839 9.92326L10.7331 9.8178L10.6273 9.92324L9.86038 10.687L9.75369 10.7932L9.86036 10.8995L10.9641 11.9993L9.86685 13.1005L9.76139 13.2064L9.86683 13.3122L10.6306 14.0791L10.7368 14.1858L10.8431 14.0792L11.9429 12.9754L13.0441 14.0721Z" fill="#213F7D" stroke="#213F7D" stroke-width="0.3"/>
</g>
<defs>
<clipPath id="clip0">
<rect width="16" height="16" fill="white"/>
</clipPath>
</defs>
</svg>
