<svg width="16" height="16" viewBox="0 0 16 16" fill="none" xmlns="http://www.w3.org/2000/svg">
<path d="M12.2251 14.7449L12.2407 14.7605L12.2454 14.7652L12.3654 14.8852C12.3632 14.8871 12.3605 14.8893 12.3574 14.8918C12.3534 14.895 12.3418 14.904 12.3251 14.9125C12.3163 14.9168 12.2935 14.9255 12.2795 14.9293C12.2576 14.9332 12.2019 14.9321 12.1694 14.924C12.15 14.915 12.1252 14.8966 12.1029 14.8762C12.146 14.8365 12.1862 14.7935 12.2232 14.7474L12.2251 14.7449ZM12.2251 14.7449L12.2401 14.7561L12.2792 14.7855L12.3851 14.8649L12.3832 14.8674L12.3829 14.8678C12.3839 14.8667 12.3846 14.8658 12.385 14.8654L12.3873 14.8627C12.3879 14.862 12.3887 14.861 12.3892 14.8604L12.2277 14.7421C12.2275 14.7424 12.2272 14.7427 12.227 14.743L12.2251 14.7449ZM5.68386 7.57751L5.68406 7.57766L5.84627 7.69888L5.65312 7.76247C5.65312 7.76247 5.65312 7.76247 5.65312 7.76247C4.77747 8.05072 3.95491 8.49952 3.23551 9.09109C1.91666 10.1756 1.00102 11.6895 0.6549 13.351C0.550796 13.8497 0.673647 14.3573 0.994263 14.7517L0.994296 14.7518C1.31284 15.1434 1.78167 15.3668 2.28695 15.3668H7.44327C7.71064 15.3668 7.92202 15.1578 7.92202 14.888C7.92202 14.6198 7.71153 14.4087 7.44327 14.4087H2.28695C2.02708 14.4087 1.84709 14.2705 1.75765 14.1709L1.73734 14.1459C1.60116 13.9778 1.54706 13.7566 1.59143 13.5454L1.5915 13.5451C2.20855 10.5823 4.821 8.41817 7.83943 8.34428H7.85143L7.85969 8.34459C7.90578 8.34628 7.95323 8.34803 7.99823 8.34803C8.04416 8.34803 8.09368 8.34621 8.14094 8.34448L8.14628 8.34428H8.15891C9.68647 8.38181 11.1532 8.95124 12.3048 9.95745L12.4364 9.80684L12.3048 9.95746C12.5061 10.1333 12.8028 10.1153 12.9804 9.91325L12.9808 9.91281C13.1572 9.71081 13.1373 9.41388 12.9349 9.2369L12.9348 9.23685C12.1734 8.57168 11.2924 8.07207 10.3463 7.76121L10.1537 7.69787L10.3158 7.57624C11.258 6.86969 11.8701 5.74539 11.8701 4.47686C11.8701 2.33961 10.1375 0.605664 8.00007 0.605664H7.82868L7.82801 0.610005C5.77043 0.700004 4.12878 2.3971 4.12878 4.47745C4.12878 5.74653 4.74087 6.871 5.68386 7.57751ZM5.08438 4.58312V4.47686C5.08438 2.87524 6.39212 1.5664 7.99325 1.56374L7.99325 1.56376H7.99873C9.60211 1.56376 10.9125 2.87304 10.9125 4.47688C10.9125 6.03111 9.68342 7.30993 8.14684 7.38656L8.14683 7.3862L8.13495 7.38751C8.08812 7.3863 8.0429 7.38569 7.99931 7.38569C7.96967 7.38569 7.93743 7.38628 7.90662 7.38684C7.89194 7.3871 7.87759 7.38736 7.864 7.38755L7.86389 7.38754L7.86393 7.38717L7.85172 7.38656C6.41966 7.31548 5.28996 6.18325 5.14396 4.76267L5.12551 4.58312H5.08438ZM14.9349 10.0518L14.9231 10.04L14.822 10.0562C14.6984 10.0761 14.588 10.144 14.5113 10.2507L14.5112 10.2509L11.6162 14.2905C11.517 14.4016 11.3893 14.4307 11.3186 14.4354L11.3179 14.4354C11.2466 14.4404 11.1131 14.4276 10.9999 14.328L10.9897 14.318L9.12423 12.4982C8.9319 12.3101 8.63406 12.3158 8.44704 12.507L8.44704 12.507C8.25964 12.6987 8.26342 12.9956 8.45418 13.1832L8.45473 13.1837L10.3235 15.0074L10.3235 15.0074L10.3253 15.0091C10.5853 15.2567 10.9336 15.3942 11.2907 15.3942L11.2952 15.3942C11.3175 15.3943 11.3443 15.3943 11.3701 15.3927V15.3928L11.3832 15.3919C11.7689 15.3665 12.1311 15.1784 12.3748 14.878L12.3757 14.8771L12.3822 14.8691L12.3882 14.8617C12.3886 14.8611 12.389 14.8607 12.3892 14.8604L12.3894 14.8605L12.3913 14.858L12.3914 14.8581L12.3939 14.8545L15.2907 10.8096C15.2907 10.8096 15.2907 10.8095 15.2907 10.8095C15.4476 10.5906 15.3964 10.2971 15.1805 10.1411C15.1804 10.141 15.1803 10.1409 15.1802 10.1409L15.0631 10.303C14.9994 10.2568 14.9244 10.243 14.8544 10.2543L14.9349 10.0518Z" fill="#213F7D" stroke="#213F7D" stroke-width="0.4"/>
</svg>
