<svg width="16" height="16" viewBox="0 0 16 16" fill="none" xmlns="http://www.w3.org/2000/svg">
<g clip-path="url(#clip0)">
<path d="M14.7669 2C14.7669 1.34595 14.228 0.820851 13.432 0.464586C12.6294 0.105377 11.5311 -0.1 10.3331 -0.1C9.13541 -0.1 8.03736 0.105378 7.23483 0.464588C6.43887 0.820853 5.9 1.34596 5.9 2C5.9 2.65404 6.43887 3.17915 7.23483 3.53541C8.03736 3.89462 9.13541 4.1 10.3331 4.1C11.5311 4.1 12.6294 3.89462 13.432 3.53541C14.228 3.17915 14.7669 2.65405 14.7669 2ZM6.76688 2C6.76688 1.87854 6.84269 1.73845 7.01708 1.59092C7.18957 1.445 7.44511 1.30383 7.76955 1.18059C8.41757 0.934443 9.32179 0.76688 10.3331 0.76688C11.3444 0.76688 12.2488 0.934447 12.897 1.1806C13.2215 1.30384 13.4772 1.44502 13.6497 1.59094C13.8242 1.73848 13.9 1.87856 13.9 2C13.9 2.12144 13.8242 2.26152 13.6497 2.40906C13.4772 2.55498 13.2215 2.69616 12.897 2.8194C12.2488 3.06555 11.3444 3.23312 10.3331 3.23312C9.32179 3.23312 8.41757 3.06555 7.76955 2.8194C7.44511 2.69616 7.18957 2.55499 7.01708 2.40907C6.84269 2.26154 6.76688 2.12145 6.76688 2Z" fill="#213F7D" stroke="#213F7D" stroke-width="0.2"/>
<path d="M14.7669 2V1.9H14.6669H14H13.9V2V4C13.9 4.12144 13.8242 4.26153 13.6497 4.40907C13.4772 4.55499 13.2215 4.69616 12.897 4.8194C12.2488 5.06556 11.3444 5.23312 10.3331 5.23312C9.32179 5.23312 8.41757 5.06555 7.76955 4.8194C7.44511 4.69616 7.18957 4.55499 7.01708 4.40907C6.84269 4.26154 6.76688 4.12145 6.76688 4V2V1.9H6.66688H6H5.9V2V4C5.9 4.65404 6.43887 5.17915 7.23483 5.53541C8.03736 5.89462 9.13541 6.1 10.3331 6.1C11.5311 6.1 12.6294 5.89462 13.432 5.53541C14.228 5.17915 14.7669 4.65405 14.7669 4V2Z" fill="#213F7D" stroke="#213F7D" stroke-width="0.2"/>
<path d="M5.9 6.00629V6.08865L5.98083 6.10444L5.98084 6.10444L5.98859 6.10595L5.99649 6.10623C6.22453 6.11426 6.44633 6.13095 6.6594 6.15503L6.78668 6.16942L6.76975 6.04245C6.76781 6.02789 6.76688 6.01418 6.76688 6.00004V4.00004V3.90004H6.66688H6H5.9V4.00004V6.00004V6.00629ZM9.33339 7.95156L9.33625 8.05075C9.65711 8.08296 9.99107 8.1 10.3331 8.1C11.5311 8.1 12.6294 7.89462 13.432 7.53541C14.228 7.17915 14.7669 6.65405 14.7669 6V4V3.9H14.6669H14H13.9V4V6C13.9 6.12144 13.8242 6.26153 13.6497 6.40907C13.4772 6.55499 13.2215 6.69616 12.897 6.8194C12.2488 7.06556 11.3444 7.23312 10.3331 7.23312C9.98805 7.23312 9.65558 7.21395 9.34068 7.17813L9.21331 7.16365L9.23025 7.29071C9.23218 7.30519 9.23313 7.31953 9.23313 7.33312C9.23313 7.39031 9.23818 7.61772 9.24628 7.95366L9.33339 7.95156Z" fill="#213F7D" stroke="#213F7D" stroke-width="0.2"/>
<path d="M9.29612 9.90823L9.1363 10.0319L9.38796 10.0558C9.69304 10.0849 10.0093 10.1 10.3331 10.1C11.5311 10.1 12.6293 9.89465 13.4319 9.53544C14.228 9.17918 14.7668 8.65407 14.7668 8.00003V6.00003V5.90003H14.6668H14H13.9V6.00003V8.00003C13.9 8.12147 13.8241 8.26156 13.6497 8.40909C13.4771 8.55502 13.2215 8.69619 12.897 8.81943C12.2488 9.06558 11.3444 9.23315 10.3331 9.23315C10.0066 9.23315 9.69013 9.21583 9.39061 9.18372L9.27702 9.17154L9.27999 9.28574C9.28173 9.35292 9.28347 9.42098 9.28523 9.48978C9.28874 9.62663 9.29232 9.76644 9.29612 9.90823ZM6.6559 6.1544L6.76688 6.16665V6.055V6V5.9H6.66688H6H5.9V6V6.00625V6.10277L5.99646 6.10619C6.22323 6.11422 6.44324 6.1309 6.6559 6.1544Z" fill="#213F7D" stroke="#213F7D" stroke-width="0.2"/>
<path d="M10.1 8C10.1 7.34596 9.56113 6.82085 8.76518 6.46459C7.96265 6.10538 6.86459 5.9 5.66689 5.9C4.46887 5.9 3.37065 6.10538 2.56804 6.46459C1.77201 6.82085 1.23313 7.34595 1.23313 8C1.23313 8.65405 1.77201 9.17915 2.56804 9.53541C3.37065 9.89462 4.46887 10.1 5.66689 10.1C6.86459 10.1 7.96265 9.89462 8.76518 9.53541C9.56113 9.17915 10.1 8.65404 10.1 8ZM2.10001 8C2.10001 7.87856 2.17584 7.73847 2.3503 7.59093C2.52285 7.44501 2.77847 7.30384 3.10299 7.1806C3.75118 6.93444 4.65556 6.76688 5.66689 6.76688C6.67822 6.76688 7.58244 6.93445 8.23046 7.1806C8.5549 7.30384 8.81044 7.44501 8.98293 7.59093C9.15732 7.73846 9.23313 7.87855 9.23313 8C9.23313 8.12145 9.15732 8.26154 8.98293 8.40907C8.81044 8.55499 8.5549 8.69616 8.23046 8.8194C7.58244 9.06555 6.67822 9.23312 5.66689 9.23312C4.65556 9.23312 3.75118 9.06555 3.10299 8.8194C2.77847 8.69616 2.52285 8.55498 2.3503 8.40906C2.17584 8.26152 2.10001 8.12144 2.10001 8Z" fill="#213F7D" stroke="#213F7D" stroke-width="0.2"/>
<path d="M10.1 8V7.9H10H9.33313H9.23313V8V10C9.23313 10.1215 9.15732 10.2615 8.98293 10.4091C8.81044 10.555 8.5549 10.6962 8.23046 10.8194C7.58244 11.0656 6.67822 11.2331 5.66689 11.2331C4.65556 11.2331 3.75118 11.0656 3.10299 10.8194C2.77847 10.6962 2.52285 10.555 2.3503 10.4091C2.17584 10.2615 2.10001 10.1214 2.10001 10V8V7.9H2.00001H1.33313H1.23313V8V10C1.23313 10.654 1.77201 11.1791 2.56804 11.5354C3.37065 11.8946 4.46887 12.1 5.66689 12.1C6.86459 12.1 7.96265 11.8946 8.76518 11.5354C9.56113 11.1791 10.1 10.654 10.1 10V8Z" fill="#213F7D" stroke="#213F7D" stroke-width="0.2"/>
<path d="M10.1 10V9.9H10H9.33313H9.23313V10V12C9.23313 12.1215 9.15732 12.2615 8.98293 12.4091C8.81044 12.555 8.5549 12.6962 8.23046 12.8194C7.58244 13.0656 6.67822 13.2331 5.66689 13.2331C4.65556 13.2331 3.75118 13.0656 3.10299 12.8194C2.77847 12.6962 2.52285 12.555 2.3503 12.4091C2.17584 12.2615 2.10001 12.1214 2.10001 12V10V9.9H2.00001H1.33313H1.23313V10V12C1.23313 12.654 1.77201 13.1791 2.56804 13.5354C3.37065 13.8946 4.46887 14.1 5.66689 14.1C6.86459 14.1 7.96265 13.8946 8.76518 13.5354C9.56113 13.1791 10.1 12.654 10.1 12V10Z" fill="#213F7D" stroke="#213F7D" stroke-width="0.2"/>
<path d="M10.1 12V11.9H10H9.33313H9.23313V12V14C9.23313 14.1215 9.15732 14.2615 8.98293 14.4091C8.81044 14.555 8.5549 14.6962 8.23046 14.8194C7.58244 15.0656 6.67822 15.2331 5.66689 15.2331C4.65556 15.2331 3.75118 15.0656 3.10299 14.8194C2.77847 14.6962 2.52285 14.555 2.3503 14.4091C2.17584 14.2615 2.10001 14.1214 2.10001 14V12V11.9H2.00001H1.33313H1.23313V12V14C1.23313 14.654 1.77201 15.1791 2.56804 15.5354C3.37065 15.8946 4.46887 16.1 5.66689 16.1C6.86459 16.1 7.96265 15.8946 8.76518 15.5354C9.56113 15.1791 10.1 14.654 10.1 14V12Z" fill="#213F7D" stroke="#213F7D" stroke-width="0.2"/>
<path d="M9.35904 12.0014L9.38279 12.0556L9.44167 12.0608C9.73037 12.0868 10.0283 12.1 10.3331 12.1C11.5311 12.1 12.6293 11.8946 13.432 11.5354C14.228 11.1791 14.7669 10.654 14.7669 10V8V7.9H14.6669H14H13.9V8V10C13.9 10.1214 13.8242 10.2615 13.6497 10.4091C13.4771 10.555 13.2215 10.6962 12.897 10.8194C12.2488 11.0656 11.3444 11.2331 10.3331 11.2331C10.0252 11.2331 9.72726 11.2177 9.44306 11.1892L9.33037 11.178L9.33314 11.2912C9.33682 11.4418 9.34077 11.5907 9.34464 11.7363C9.34668 11.8131 9.3487 11.889 9.35064 11.9638L9.35115 11.9835L9.35904 12.0014L9.35904 12.0014Z" fill="#213F7D" stroke="#213F7D" stroke-width="0.2"/>
<path d="M9.41079 13.9998L9.43245 14.0607L9.49687 14.0659C9.76763 14.088 10.0479 14.1 10.3331 14.1C11.5312 14.1 12.6294 13.8946 13.432 13.5354C14.228 13.1791 14.7669 12.654 14.7669 12V10V9.9H14.6669H14H13.9V10V12C13.9 12.1214 13.8242 12.2615 13.6497 12.4091C13.4772 12.555 13.2216 12.6962 12.897 12.8194C12.2488 13.0656 11.3445 13.2331 10.3331 13.2331C10.0444 13.2331 9.76439 13.2195 9.49628 13.1942L9.38384 13.1836L9.38691 13.2965C9.3915 13.4648 9.39534 13.6089 9.39835 13.7222C9.40151 13.8406 9.40377 13.9254 9.40504 13.9692L9.4055 13.9849L9.41078 13.9998L9.41079 13.9998Z" fill="#213F7D" stroke="#213F7D" stroke-width="0.2"/>
</g>
<defs>
<clipPath id="clip0">
<rect width="16" height="16" fill="white"/>
</clipPath>
</defs>
</svg>
