<svg width="16" height="14" viewBox="0 0 16 14" fill="none" xmlns="http://www.w3.org/2000/svg">
<path d="M9.77402 5.66972L9.77964 5.66591L9.75982 5.59636C9.71625 5.44343 9.564 5.32771 9.3989 5.34777C9.36766 5.34945 9.2924 5.35936 9.19011 5.38435C9.07397 5.41271 8.91755 5.46179 8.74075 5.54499C8.40542 5.70279 7.99708 5.98327 7.6526 6.47634C7.38761 6.30794 6.97325 6.15796 6.42653 6.29402C6.29055 6.31888 6.17483 6.43296 6.17119 6.59228C6.08092 7.23023 6.30839 7.8475 6.61299 8.35911C6.91327 8.86347 7.29487 9.27593 7.5466 9.52104C7.56249 9.55826 7.58043 9.59407 7.59543 9.624L7.59569 9.62451C7.61097 9.65501 7.62171 9.67672 7.62821 9.69231C7.6364 9.86314 7.64822 10.0076 7.66007 10.1147C7.66617 10.1698 7.67236 10.2157 7.67821 10.2507C7.68112 10.268 7.68411 10.2836 7.68715 10.2967C7.68865 10.3032 7.69087 10.3123 7.69412 10.3219C7.72454 10.4853 7.8832 10.5874 8.03111 10.5874H8.07923V10.5882L8.09181 10.5866C8.27317 10.5636 8.41337 10.385 8.36923 10.1959L8.36853 10.1914L8.36487 10.1667C8.36174 10.1448 8.35736 10.1121 8.35247 10.07C8.3436 9.99383 8.33307 9.8867 8.32522 9.75596C8.56205 9.49729 9.20005 8.75691 9.52866 8.10039L9.52867 8.1004L9.52938 8.09892C9.81883 7.49614 9.8759 6.8829 9.8616 6.41689C9.85445 6.18353 9.82936 5.98603 9.80607 5.84375C9.79441 5.77257 9.78321 5.71525 9.77498 5.67445L9.77402 5.66972ZM6.9818 7.07868C6.92085 7.12226 6.88058 7.17856 6.85872 7.23978C6.83687 7.1386 6.8234 7.03695 6.82009 6.93552C6.98554 6.93513 7.1176 6.97432 7.21917 7.02475C7.14071 7.016 7.05964 7.03355 6.99031 7.07322L6.99005 7.07278L6.9818 7.07868ZM8.89404 7.78807C8.75729 8.05732 8.55609 8.35219 8.35423 8.61332C8.44352 8.07772 8.62863 7.48317 9.00878 6.9634L9.00879 6.96341L9.00941 6.96254C9.11803 6.81064 9.09966 6.60229 8.93811 6.48677C8.82302 6.40448 8.67553 6.39508 8.56056 6.46562C8.76994 6.28705 8.97675 6.1833 9.13929 6.12288C9.2005 6.49412 9.20811 7.15942 8.90236 7.77142L8.89404 7.78807ZM8.00875 7.1728C8.14758 6.90657 8.30801 6.70292 8.4705 6.5471C8.46797 6.55037 8.46549 6.5537 8.46304 6.55709C8.17359 6.94354 7.97559 7.36373 7.84137 7.77634C7.86205 7.57296 7.91467 7.36907 8.00875 7.1728Z" fill="#213F7D" stroke="#213F7D" stroke-width="0.2"/>
<path d="M4.46 10.84C4.46 11.0234 4.61664 11.18 4.8 11.18C4.98335 11.18 5.14 11.0234 5.14 10.84V4.76002C5.14 4.57667 4.98335 4.42002 4.8 4.42002C4.61664 4.42002 4.46 4.57667 4.46 4.76002V10.84Z" fill="#213F7D" stroke="#213F7D" stroke-width="0.2"/>
<path d="M2.85996 10.84C2.85996 11.0234 3.01661 11.18 3.19996 11.18C3.38331 11.18 3.53996 11.0234 3.53996 10.84V4.76002C3.53996 4.57667 3.38331 4.42002 3.19996 4.42002C3.01661 4.42002 2.85996 4.57667 2.85996 4.76002V10.84Z" fill="#213F7D" stroke="#213F7D" stroke-width="0.2"/>
<path d="M10.86 10.84C10.86 11.0234 11.0166 11.18 11.2 11.18C11.3833 11.18 11.54 11.0234 11.54 10.84V4.76002C11.54 4.57667 11.3833 4.42002 11.2 4.42002C11.0166 4.42002 10.86 4.57667 10.86 4.76002V10.84Z" fill="#213F7D" stroke="#213F7D" stroke-width="0.2"/>
<path d="M12.46 10.84C12.46 11.0234 12.6166 11.18 12.8 11.18C12.9834 11.18 13.14 11.0234 13.14 10.84V4.76002C13.14 4.57667 12.9834 4.42002 12.8 4.42002C12.6166 4.42002 12.46 4.57667 12.46 4.76002V10.84Z" fill="#213F7D" stroke="#213F7D" stroke-width="0.2"/>
<path d="M13.5818 4.30009H13.36H2.63998C2.48642 4.30009 2.34561 4.19249 2.31856 4.04581C2.27547 3.88575 2.35042 3.75023 2.47264 3.66876L2.47678 3.66599L2.47685 3.6661L7.83656 0.466273C7.8366 0.466247 7.83664 0.466221 7.83669 0.466195L7.83685 0.466101L7.88811 0.551963C7.96811 0.503838 8.06436 0.503838 8.12811 0.551963L13.5818 4.30009ZM13.5818 4.30009L13.5366 4.24891C13.6335 4.18894 13.7012 4.08338 13.7148 3.97143L13.7155 3.97152V3.95939C13.7155 3.82919 13.6337 3.69708 13.5169 3.64614L8.18346 0.468537L13.5818 4.30009ZM12.119 3.62009H3.8658L7.99988 1.1485L12.119 3.62009Z" fill="#213F7D" stroke="#213F7D" stroke-width="0.2"/>
<path d="M2.63996 11.9801H13.36C13.5433 11.9801 13.7 11.8235 13.7 11.6401C13.7 11.4568 13.5433 11.3001 13.36 11.3001H2.63996C2.45661 11.3001 2.29996 11.4568 2.29996 11.6401C2.29996 11.8235 2.45661 11.9801 2.63996 11.9801Z" fill="#213F7D" stroke="#213F7D" stroke-width="0.2"/>
<path d="M1.83998 12.7802H14.16C14.3433 12.7802 14.5 12.6235 14.5 12.4402C14.5 12.2568 14.3433 12.1002 14.16 12.1002H1.83998C1.65662 12.1002 1.49998 12.2568 1.49998 12.4402C1.49998 12.6235 1.65662 12.7802 1.83998 12.7802Z" fill="#213F7D" stroke="#213F7D" stroke-width="0.2"/>
<path d="M1.03999 13.58H14.96C15.1433 13.58 15.3 13.4234 15.3 13.24C15.3 13.0566 15.1433 12.9 14.96 12.9H1.03999C0.856635 12.9 0.699988 13.0566 0.699988 13.24C0.699988 13.4234 0.856635 13.58 1.03999 13.58Z" fill="#213F7D" stroke="#213F7D" stroke-width="0.2"/>
</svg>
