<svg width="16" height="16" viewBox="0 0 16 16" fill="none" xmlns="http://www.w3.org/2000/svg">
<path d="M12.5668 6.33312C12.5668 6.53813 12.709 6.71 12.8999 6.75523V6.76688H12.9999C13.2389 6.76688 13.4331 6.57273 13.4331 6.33376V1.66688C13.4331 0.692301 12.6408 -0.1 11.6668 -0.1H1.66681C1.42734 -0.1 1.23307 0.094026 1.23307 0.33312C1.23307 0.572718 1.42722 0.766864 1.66681 0.766864H11.6668C12.1629 0.766864 12.5668 1.17089 12.5668 1.66624V6.33312Z" fill="#213F7D" stroke="#213F7D" stroke-width="0.2"/>
<path d="M12.5669 13.6668C12.5669 13.9057 12.7611 14.0999 13.0001 14.0999C13.239 14.0999 13.4332 13.9057 13.4332 13.6668V8.99987C13.4332 8.76089 13.239 8.56675 13.0001 8.56675C12.7611 8.56675 12.5669 8.7609 12.5669 8.99987V13.6668Z" fill="#213F7D" stroke="#213F7D" stroke-width="0.2"/>
<path d="M2.56688 2.76686V14.3331C2.56688 15.3077 3.35911 16.1 4.33312 16.1H14.1735L14.1735 16.1H14.3331C15.3071 16.1 16.1 15.3078 16.1 14.3331V13.6662C16.1 13.4273 15.9058 13.2331 15.6669 13.2331H5.66686C5.42739 13.2331 5.23312 13.4272 5.23312 13.6662V14.3331C5.23312 14.8291 4.82914 15.2331 4.33312 15.2331C3.83706 15.2331 3.43312 14.8291 3.43312 14.3338V1.66688C3.43312 0.692301 2.64089 -0.1 1.66688 -0.1C0.69295 -0.1 -0.1 0.692209 -0.1 1.66624V2.33312C-0.1 2.5726 0.094026 2.76686 0.33312 2.76686H2.56688ZM14.3331 15.2331H5.85341C6.0099 14.9696 6.1 14.6621 6.1 14.3331V14.1H15.2331V14.3331C15.2331 14.8291 14.8291 15.2331 14.3331 15.2331ZM2.56688 1.66686V1.89998H0.76688V1.66686C0.76688 1.17084 1.17086 0.766864 1.66688 0.766864C2.1629 0.766864 2.56688 1.17084 2.56688 1.66686Z" fill="#213F7D" stroke="#213F7D" stroke-width="0.2"/>
<path d="M9.74172 11.433H9.66691C9.55403 11.433 9.44364 11.3891 9.3603 11.3066L9.35994 11.3063C9.24383 11.1901 9.20316 11.0187 9.25516 10.8627L9.25516 10.8627L9.92204 8.86267L9.92205 8.86266L10.0169 8.89429C10.0332 8.84554 10.0607 8.80054 10.0975 8.76429L9.74172 11.433ZM9.74172 11.433L9.74376 11.4261M9.74172 11.433L9.74376 11.4261M9.74376 11.4261C9.76373 11.4225 9.78355 11.4175 9.80303 11.4112L9.80356 11.411L11.8035 10.7441C11.8036 10.7441 11.8036 10.7441 11.8036 10.7441C11.8672 10.7229 11.9249 10.687 11.9726 10.6393L15.6963 6.91565C15.6963 6.91565 15.6963 6.91564 15.6963 6.91564L9.74376 11.4261ZM10.0274 8.69298C10.0273 8.69309 10.0272 8.69319 10.0271 8.6933L15.6219 5.04061C15.1412 4.55999 14.3025 4.55812 13.8212 5.04061L13.7505 4.9699L13.7504 4.96999L10.0274 8.69298ZM15.0838 6.30285L15.0837 6.30294L11.4323 9.9544L10.3519 10.3144L10.7118 9.23458L14.3633 5.58248C14.3633 5.58248 14.3633 5.58248 14.3633 5.58248C14.5536 5.39216 14.8859 5.38841 15.0837 5.58623L15.0838 5.58633C15.2815 5.78351 15.2815 6.10566 15.0838 6.30285Z" fill="#213F7D" stroke="#213F7D" stroke-width="0.2"/>
<path d="M11.3602 10.6404L11.3599 10.6401L11.3599 10.6401L10.0268 9.30694C9.85774 9.13789 9.85774 8.86332 10.0268 8.69427C10.1958 8.52522 10.4704 8.52522 10.6395 8.69427L11.9726 10.0274C12.1416 10.1964 12.1416 10.471 11.9726 10.6401C11.8889 10.7238 11.7776 10.7668 11.6669 10.7669L11.3602 10.6404ZM11.3602 10.6404C11.4452 10.7245 11.5557 10.7668 11.6669 10.7669L11.3602 10.6404Z" fill="#213F7D" stroke="#213F7D" stroke-width="0.2"/>
<path d="M6.33374 3.43299H9.66686C9.90584 3.43299 10.1 3.23884 10.1 2.99987C10.1 2.76077 9.90571 2.56675 9.66624 2.56675H6.33312C6.09415 2.56675 5.9 2.76089 5.9 2.99987C5.9 3.23896 6.09427 3.43299 6.33374 3.43299Z" fill="#213F7D" stroke="#213F7D" stroke-width="0.2"/>
<path d="M5.00005 5.43299H11.0001C11.239 5.43299 11.4332 5.23884 11.4332 4.99987C11.4332 4.76089 11.239 4.56675 11.0001 4.56675H5.00005C4.76108 4.56675 4.56693 4.76089 4.56693 4.99987C4.56693 5.23884 4.76108 5.43299 5.00005 5.43299Z" fill="#213F7D" stroke="#213F7D" stroke-width="0.2"/>
<path d="M10.7663 6.99966C10.7662 6.76078 10.5721 6.56675 10.3332 6.56675H5.00005C4.76108 6.56675 4.56693 6.76089 4.56693 6.99987C4.56693 7.23884 4.76108 7.43299 5.00005 7.43299H10.3332C10.5725 7.43299 10.767 7.23902 10.7663 6.99966ZM10.7663 6.99966C10.7663 6.99962 10.7663 6.99957 10.7663 6.99953L10.6663 6.99987H10.7663C10.7663 6.9998 10.7663 6.99973 10.7663 6.99966Z" fill="#213F7D" stroke="#213F7D" stroke-width="0.2"/>
<path d="M5.00005 9.43299H9.00005C9.23902 9.43299 9.43317 9.23884 9.43317 8.99987C9.43317 8.7609 9.23902 8.56675 9.00005 8.56675H5.00005C4.76108 8.56675 4.56693 8.7609 4.56693 8.99987C4.56693 9.23884 4.76108 9.43299 5.00005 9.43299Z" fill="#213F7D" stroke="#213F7D" stroke-width="0.2"/>
</svg>
