<svg width="17" height="17" viewBox="0 0 17 17" fill="none" xmlns="http://www.w3.org/2000/svg">
<path d="M1.66748 0.340014V13.95H7.06838V12.93H2.68748V1.36001H7.81995V5.06414H11.3182V8.20574H12.3382V4.18677L8.57492 0.339844L1.66748 0.340014ZM8.83995 2.07061L10.773 4.04414H8.83995V2.07061Z" fill="#213F7D"/>
<path d="M3.73474 7.09961H9.86341V8.11961H3.73474V7.09961Z" fill="#213F7D"/>
<path d="M3.73474 9.30957H6.80341V10.3296H3.73474V9.30957Z" fill="#213F7D"/>
<path d="M15.3325 15.2509V10.54C15.3325 9.15613 12.0634 9.11694 11.6907 9.11694C11.3182 9.11694 8.05103 9.15944 8.05103 10.54V15.2827C8.05169 15.3345 8.06032 15.3856 8.07692 15.4341C8.36711 16.6261 11.3375 16.6599 11.6928 16.6599C12.0481 16.6599 15.2628 16.6194 15.3305 15.278C15.3305 15.2707 15.3325 15.2628 15.3325 15.2508L15.3325 15.2509ZM14.3125 12.0209C14.1099 12.2075 13.1749 12.5123 11.6928 12.5123C10.2099 12.5123 9.28217 12.2075 9.07103 12.0275V11.5893C10.0638 11.9512 11.451 11.9664 11.6928 11.9664C11.9345 11.9664 13.321 11.9492 14.3145 11.5893L14.3125 12.0209ZM9.07103 13.1545C10.0638 13.5164 11.451 13.5317 11.6928 13.5317C11.9345 13.5317 13.321 13.5144 14.3145 13.1545L14.3138 13.6C14.1033 13.78 13.175 14.0848 11.6921 14.0848C10.2099 14.0848 9.28218 13.77 9.07104 13.6L9.07103 13.1545ZM11.6928 10.1404C12.9678 10.1404 13.8331 10.3661 14.185 10.5434C13.833 10.7134 12.9677 10.9465 11.6928 10.9465C10.4178 10.9465 9.55042 10.7221 9.20056 10.5401C9.55053 10.3701 10.4158 10.1404 11.6928 10.1404ZM9.07103 15.1593V14.7203C10.0638 15.0822 11.451 15.0975 11.6928 15.0975C11.9345 15.0975 13.321 15.0803 14.3145 14.7203V15.1586C14.1013 15.3392 13.175 15.64 11.6928 15.64C10.2099 15.64 9.28217 15.3392 9.07103 15.1593Z" fill="#213F7D"/>
</svg>
