<svg width="16" height="16" viewBox="0 0 16 16" fill="none" xmlns="http://www.w3.org/2000/svg">
<path fill-rule="evenodd" clip-rule="evenodd" d="M12.2656 11.5662L15.7718 8.49872C16.0487 8.25622 16.0768 7.8356 15.8343 7.5581C15.8149 7.5356 15.7937 7.51497 15.7718 7.4956L12.2443 4.40936C11.9793 4.17748 11.5799 4.19185 11.3318 4.44123L11.3287 4.44498C11.0956 4.67999 11.0968 5.05999 11.3318 5.29311C11.3393 5.29999 11.3462 5.30749 11.3537 5.31374L13.6018 7.33054H4.66743C4.29931 7.33054 4.00118 7.62866 4.00118 7.99742C4.00118 8.36554 4.29931 8.66367 4.66743 8.66367H13.6018L11.3844 10.585C11.1144 10.8187 11.085 11.2268 11.3188 11.4962C11.3219 11.4999 11.3256 11.5037 11.3288 11.5075L11.3331 11.5124C11.5775 11.7818 11.9925 11.8056 12.2656 11.5662L12.2656 11.5662ZM10.003 3.33312C9.63489 3.33312 9.33613 3.03499 9.33613 2.66624V1.33312H1.99981C1.63169 1.33312 1.33293 1.63187 1.33293 2V14C1.33293 14.3681 1.63169 14.6669 1.99981 14.6669H9.33613V13.3338C9.33613 12.965 9.63489 12.6669 10.003 12.6669C10.3718 12.6669 10.6699 12.965 10.6699 13.3338V14.6669C10.6661 15.3331 9.99927 16 9.33615 16H1.33295C0.666071 16 -0.000793457 15.3331 -0.000793457 14.6669V1.33312C-0.000793457 0.666864 0.666087 0 1.33295 0H9.33231C9.99919 0 10.6661 0.680624 10.6661 1.33312L10.6686 2.66624C10.6692 3.03374 10.3723 3.3325 10.0048 3.33312H10.0029H10.003Z" fill="#213F7D"/>
</svg>
