<svg width="14" height="16" viewBox="0 0 14 16" fill="none" xmlns="http://www.w3.org/2000/svg">
<path d="M9.44349 0.743462L9.4432 0.743197C9.12796 0.459151 8.7185 0.301855 8.29439 0.301855H5.71183C5.28774 0.301855 4.87823 0.459137 4.56356 0.743267C4.23239 1.0423 4.03181 1.45751 4.00141 1.89998H2.17746C1.41535 1.89998 0.797461 2.51787 0.797461 3.27998V14.32C0.797461 14.6859 0.943016 15.037 1.20176 15.2957C1.4605 15.5544 1.81155 15.7 2.17746 15.7H11.8274C12.1933 15.7 12.5443 15.5544 12.8031 15.2957C13.0618 15.0369 13.2074 14.6859 13.2074 14.32L13.2075 3.27998C13.2075 2.91406 13.062 2.56301 12.8032 2.30428C12.5445 2.04555 12.1934 1.89998 11.8275 1.89998H10.0036C9.97321 1.45814 9.77332 1.04303 9.44349 0.743462ZM4.84628 1.89998H4.84356C4.87027 1.69524 4.96865 1.50566 5.12342 1.36534C5.28421 1.21968 5.4945 1.13942 5.71165 1.13998H5.71191H8.28823C8.50339 1.13998 8.71138 1.21949 8.87242 1.36355C9.05576 1.53079 9.16004 1.76749 9.15948 2.01601V2.01624V3.81992H4.83279L4.83484 2.73998H4.84628V2.63998V1.99998V1.89998ZM10.4369 3.31749H10.0075V2.73998H11.8275C11.9703 2.73998 12.108 2.79695 12.2093 2.8982C12.3105 2.99949 12.3675 3.13656 12.3675 3.27998L12.3675 14.32C12.3675 14.4634 12.3106 14.6005 12.2093 14.7018C12.108 14.803 11.9704 14.86 11.8275 14.86H2.17247C1.87451 14.86 1.63247 14.6184 1.63247 14.32V3.27998C1.63247 2.98153 1.87451 2.73998 2.17247 2.73998H3.99247V3.31749H3.56309C3.06599 3.31749 2.66309 3.72039 2.66309 4.21749V13.0624C2.66309 13.3008 2.75801 13.53 2.92675 13.6988C3.09549 13.8675 3.32468 13.9624 3.56309 13.9624H8.30565H8.34768L8.37708 13.9324L11.3083 10.9406L11.3369 10.9114V10.8706V4.21749C11.3369 3.97909 11.2419 3.74989 11.0732 3.58115C10.9045 3.4124 10.6753 3.31749 10.4369 3.31749ZM4.41503 4.65998H9.58751C9.69835 4.65998 9.80568 4.61574 9.88447 4.53694C9.96319 4.45823 10.0075 4.35156 10.0075 4.23998V4.15748H10.4369C10.4528 4.15748 10.468 4.16378 10.4793 4.17507C10.4906 4.18635 10.4969 4.20156 10.4969 4.21748V10.1975H8.63193C8.13483 10.1975 7.73193 10.6004 7.73193 11.0975V13.1224H3.56313C3.53023 13.1224 3.50313 13.0953 3.50313 13.0624V4.21748C3.50313 4.18458 3.53023 4.15748 3.56313 4.15748H3.99251V4.23998C3.99251 4.35155 4.03683 4.45823 4.11555 4.53694C4.19434 4.61574 4.30166 4.65998 4.41251 4.65998H4.41503ZM8.63199 11.0437H10.0308L8.57199 12.5325V11.1037C8.57199 11.0708 8.59909 11.0437 8.63199 11.0437Z" fill="#213F7D" stroke="#213F7D" stroke-width="0.2"/>
</svg>
