<svg width="16" height="16" viewBox="0 0 16 16" fill="none" xmlns="http://www.w3.org/2000/svg">
<path d="M1.80324 2.89985C1.62929 3.05793 1.61816 3.32711 1.77568 3.49968L1.77575 3.49976L5.48823 7.5604L5.48843 7.56061C5.93441 8.0461 6.53491 8.31542 7.17737 8.31542H7.17851C7.82104 8.31542 8.42091 8.04604 8.86744 7.55998L8.86765 7.55975L12.5739 3.50535L12.5741 3.50507C12.7327 3.3306 12.7188 3.0646 12.547 2.90604L12.547 2.90604L12.5463 2.90534C12.3738 2.74874 12.1063 2.75931 11.9471 2.93271L11.9469 2.93294L8.24282 6.9864C8.24278 6.98645 8.24274 6.98649 8.2427 6.98653C7.6748 7.60378 6.68117 7.60315 6.11446 6.98716C6.11442 6.98711 6.11438 6.98707 6.11434 6.98703L2.4028 2.928C2.40279 2.92799 2.40279 2.92798 2.40278 2.92797C2.40277 2.92796 2.40276 2.92795 2.40275 2.92794C2.24441 2.75462 1.9755 2.74278 1.80324 2.89985ZM1.80324 2.89985C1.8032 2.89988 1.80317 2.89992 1.80313 2.89995L1.88738 2.99229L1.80334 2.89975C1.80331 2.89979 1.80327 2.89982 1.80324 2.89985Z" fill="#213F7D" stroke="#213F7D" stroke-width="0.25"/>
<path d="M1.80322 9.48208L1.80321 9.48209C1.62988 9.64038 1.61793 9.90933 1.7757 10.0817C1.85774 10.1722 1.97068 10.2191 2.08327 10.2206L2.08326 10.2207H2.08938C2.19257 10.2207 2.29362 10.1821 2.37392 10.1113L2.37393 10.1113L2.37555 10.1098L5.63896 7.1288C5.63901 7.12875 5.63906 7.12871 5.63911 7.12867C5.813 6.9706 5.82415 6.70207 5.66662 6.52949L5.6666 6.52947C5.50876 6.35664 5.2402 6.34237 5.06666 6.5023C5.06657 6.50238 5.06648 6.50246 5.0664 6.50254L1.80322 9.48208Z" fill="#213F7D" stroke="#213F7D" stroke-width="0.25"/>
<path d="M11.0043 9.06736H11.1293V9.04842C11.1992 9.0267 11.2645 8.98632 11.317 8.92743C11.4762 8.7539 11.4617 8.48725 11.2901 8.32964L11.2898 8.3294L9.28637 6.50084C9.28632 6.50079 9.28627 6.50075 9.28622 6.5007C9.11289 6.34174 8.84649 6.35507 8.6879 6.52775C8.52801 6.70184 8.54281 6.96964 8.71421 7.1269L8.71443 7.1271L10.7181 8.95654C10.7181 8.95654 10.7181 8.95654 10.7181 8.95654C10.7997 9.03099 10.902 9.06736 11.0043 9.06736Z" fill="#213F7D" stroke="#213F7D" stroke-width="0.25"/>
<path d="M11.0896 15.1098L11.0896 15.1098C10.969 15.0701 10.8736 14.9808 10.8255 14.8635L10.8248 14.8617L10.8248 14.8617L10.4677 13.9517L9.48994 13.8933L9.48854 13.8932L9.48854 13.8932L11.0896 15.1098ZM11.0896 15.1098L11.0912 15.1103C11.2115 15.148 11.3424 15.1316 11.4491 15.0632L11.0896 15.1098ZM14.0827 13.9529L15.0594 13.894L13.3305 15.0054L13.3299 15.0048M14.0827 13.9529L14.1119 13.8786L13.9955 13.8329L14.003 13.9577L14.0827 13.9529ZM14.0827 13.9529L13.725 14.863L13.7246 14.864C13.677 14.9821 13.5803 15.072 13.4594 15.1102L13.459 15.1103C13.4179 15.1232 13.374 15.1304 13.3305 15.1304H13.2795L13.2755 15.1265M13.2755 15.1265C13.2938 15.1287 13.312 15.1298 13.3299 15.1298V15.006V15.0048M13.2755 15.1265L13.243 15.0947L13.2424 15.094L13.3299 15.0048M13.2755 15.1265C13.2162 15.1194 13.1559 15.0999 13.1005 15.0633M13.3299 15.0048C13.2736 15.0048 13.2174 14.991 13.1686 14.9585M13.1686 14.9585L13.1014 15.0639L13.1005 15.0633M13.1686 14.9585L12.2755 14.3892M13.1686 14.9585L13.0993 15.0625C13.0997 15.0628 13.1001 15.0631 13.1005 15.0633M13.1005 15.0633L12.2755 14.5374M12.2755 14.3892L12.3426 14.4946L12.2755 14.5374M12.2755 14.3892L11.3818 14.9579L11.4493 15.0631L12.2755 14.5374M12.2755 14.3892L12.2083 14.4946L12.2755 14.5374M9.10493 13.3655C9.07401 13.4883 9.09887 13.6169 9.17302 13.7193L15.0599 13.8939L15.0596 13.8939C15.1859 13.8868 15.303 13.8233 15.3772 13.7203C15.4537 13.6165 15.476 13.4874 15.4455 13.3661L15.4453 13.3654L15.2008 12.4179L15.955 11.7936C16.0558 11.7128 16.1112 11.5911 16.1112 11.4666C16.1112 11.3363 16.0514 11.2205 15.9569 11.1406L15.9569 11.1406L15.9558 11.1397L15.2008 10.5159L15.4453 9.56722L15.4455 9.56654C15.4762 9.44433 15.4526 9.31531 15.377 9.21214L15.2761 9.28602L15.3774 9.21271C15.3019 9.10845 15.1854 9.04839 15.062 9.03889L15.062 9.03887L15.0599 9.03875L14.0832 8.98038L13.7249 8.07024L13.7247 8.06975C13.678 7.95241 13.5822 7.8617 13.4606 7.82265L13.4606 7.82264L13.4593 7.82225C13.3397 7.78524 13.2092 7.79894 13.1011 7.86898C13.1009 7.8691 13.1007 7.86923 13.1005 7.86936L12.2755 8.39357L11.4494 7.86866L11.4494 7.86865L11.4483 7.86792C11.3425 7.80234 11.2122 7.78433 11.0916 7.82248L11.0913 7.82257C10.9685 7.86171 10.8738 7.95266 10.8266 8.06901L10.8266 8.069L10.8261 8.07031L10.4684 8.98038L9.48994 9.03875L9.48994 9.03874L9.48854 9.03884C9.3665 9.04749 9.24748 9.10797 9.17282 9.21299C9.09757 9.31621 9.0743 9.44617 9.10493 9.56779L9.10492 9.56779L9.1051 9.56848L9.34903 10.5147L8.59437 11.1394C8.49554 11.2198 8.43988 11.3392 8.43988 11.466C8.43988 11.5942 8.49891 11.7123 8.59309 11.7916L8.59308 11.7916L8.59393 11.7923L9.34905 12.4173L9.10509 13.3649L9.10493 13.3655ZM12.5034 13.6763L12.5026 13.6758L14.3119 10.5631C14.2702 10.7248 14.3275 10.8915 14.4525 10.9953L14.4529 10.9957L15.0203 11.463L14.4528 11.9315L14.4525 11.9318C14.3276 12.0356 14.2702 12.2035 14.312 12.3641C14.312 12.3642 14.312 12.3644 14.3121 12.3645L14.4949 13.0763L13.7623 13.1219C13.5965 13.1302 13.4519 13.235 13.3922 13.3894C13.3921 13.3895 13.392 13.3897 13.392 13.3899L13.123 14.0716L12.5034 13.6763ZM14.4949 9.8508L14.312 10.5629L10.0989 10.9943C10.2251 10.8901 10.2814 10.7218 10.2397 10.5616C10.2396 10.5615 10.2396 10.5614 10.2396 10.5614L10.0568 9.8508L10.7894 9.80524C10.9546 9.79687 11.0992 9.69201 11.1588 9.53777L11.4281 8.85534L12.0477 9.24962C12.0478 9.24963 12.0478 9.24964 12.0478 9.24965C12.1869 9.3382 12.3642 9.33821 12.5032 9.24965C12.5033 9.24964 12.5033 9.24963 12.5033 9.24962L13.123 8.85534L13.3924 9.53818L13.3923 9.53818L13.3929 9.53965C13.4545 9.69009 13.5965 9.79455 13.7612 9.80517L13.7615 9.80519L14.4949 9.8508ZM9.53177 11.4629L10.0988 10.9943L10.2396 12.3645L10.1187 12.3329L10.2397 12.364L10.2397 12.3642C10.2815 12.2034 10.2246 12.037 10.0996 11.9322L10.0989 11.9316L9.53177 11.4629ZM10.0567 13.0763L9.9297 13.0684L9.89803 13.1917L10.0251 13.1996L10.0567 13.0763ZM9.33553 11.4629L9.43365 11.544V11.3818L9.33553 11.4629ZM11.3213 14.1401L11.368 14.2585L11.4754 14.19L11.4286 14.0716L11.3213 14.1401Z" fill="#213F7D" stroke="#213F7D" stroke-width="0.25"/>
<path d="M10.655 11.4624C10.655 12.3552 11.3822 13.0831 12.2756 13.0831C13.1697 13.0831 13.8962 12.3551 13.8962 11.4624C13.8962 10.5684 13.169 9.8418 12.2756 9.8418C11.3822 9.8418 10.655 10.5684 10.655 11.4624ZM11.5031 11.4631C11.5031 11.0366 11.8502 10.6906 12.2756 10.6906C12.7021 10.6906 13.0481 11.0371 13.0481 11.4631C13.0481 11.8884 12.7009 12.2356 12.2756 12.2356C11.8497 12.2356 11.5031 11.8879 11.5031 11.4631Z" fill="#213F7D" stroke="#213F7D" stroke-width="0.25"/>
<path d="M1.49563 11.8868H8.67098L8.67036 11.8874H8.97181C9.20602 11.8874 9.39618 11.6963 9.39618 11.4631C9.39618 11.2289 9.20504 11.0387 8.97181 11.0387H1.49501C1.06915 11.0387 0.722504 10.691 0.722504 10.2662V2.4905C0.722504 2.06459 1.06962 1.718 1.49501 1.718H12.8593C13.2847 1.718 13.6318 2.06517 13.6318 2.4905V9.36922C13.6318 9.60343 13.823 9.7936 14.0562 9.7936C14.2904 9.7936 14.4806 9.60246 14.4806 9.36922V2.4905C14.4806 1.59705 13.7527 0.869873 12.86 0.869873H1.49563C0.602211 0.869873 -0.125 1.5971 -0.125 2.4905V10.2662C-0.125 11.1589 0.602195 11.8868 1.49563 11.8868Z" fill="#213F7D" stroke="#213F7D" stroke-width="0.25"/>
</svg>
