<svg width="14" height="16" viewBox="0 0 14 16" fill="none" xmlns="http://www.w3.org/2000/svg">
<path d="M10.2482 8.49682C8.41507 8.49682 6.92387 9.98807 6.92387 11.8218C6.92387 13.6549 8.41512 15.1461 10.2482 15.1461C12.0813 15.1461 13.5725 13.6549 13.5725 11.8218C13.5725 9.98871 12.0819 8.49682 10.2482 8.49682ZM10.2482 13.8469C9.13131 13.8469 8.22323 12.9381 8.22323 11.8219C8.22323 10.7051 9.13198 9.79634 10.2482 9.79634C11.3651 9.79634 12.2738 10.7051 12.2738 11.8219C12.2738 12.9382 11.365 13.8469 10.2482 13.8469ZM3.75187 7.1213C5.58499 7.1213 7.07619 5.63005 7.07619 3.79634C7.07619 1.96322 5.58494 0.47202 3.75187 0.47202C1.9188 0.47202 0.427551 1.96327 0.427551 3.79634C0.427551 5.6301 1.9188 7.1213 3.75187 7.1213ZM3.75187 1.77122C4.86875 1.77122 5.77683 2.67997 5.77683 3.79618C5.77683 4.91306 4.86808 5.82178 3.75187 5.82178C2.63499 5.82178 1.72691 4.91303 1.72691 3.79618C1.72629 2.67992 2.63504 1.77122 3.75187 1.77122ZM12.3813 0.11938C12.0882 -0.0881235 11.6832 -0.0181203 11.4757 0.275006L1.08128 14.975C0.874399 15.2681 0.94378 15.6731 1.2369 15.8806C1.35066 15.9613 1.4819 16 1.61127 16C1.81502 16 2.01564 15.9044 2.1419 15.725L12.5369 1.025C12.7438 0.731884 12.6744 0.326252 12.3813 0.119373V0.11938Z" fill="#213F7D"/>
</svg>
