<svg width="16" height="14" viewBox="0 0 16 14" fill="none" xmlns="http://www.w3.org/2000/svg">
<path d="M1.24962 3.05187H1.34962V3.05062H4.81618C5.06782 4.10405 6.01074 4.85318 7.10082 4.85318C8.19154 4.85318 9.13447 4.10413 9.38611 3.05062H14.7458C15.0492 3.05062 15.2952 2.80451 15.2952 2.50062C15.2952 2.19727 15.0491 1.95125 14.7458 1.95125H9.38611C9.13446 0.897807 8.19155 0.148047 7.10082 0.148047C6.01065 0.148047 5.0678 0.897745 4.81618 1.95125H1.24962C0.945461 1.95125 0.699622 2.19807 0.699622 2.50187C0.699622 2.80585 0.945641 3.05187 1.24962 3.05187ZM5.85084 2.50069C5.85142 1.81266 6.40816 1.25411 7.09552 1.25062H7.10082C7.60669 1.25062 8.06267 1.55506 8.25593 2.02199L8.25595 2.02204C8.44983 2.48965 8.34277 3.02726 7.98512 3.3849C7.62746 3.74256 7.08986 3.84961 6.62226 3.65574L6.6222 3.65571C6.1553 3.46247 5.85087 3.00653 5.85084 2.50069Z" fill="#213F7D" stroke="#213F7D" stroke-width="0.2"/>
<path d="M14.8505 10.9603V10.9494H14.7505H7.13455C6.8829 9.89594 5.93996 9.14683 4.84927 9.14683C3.75914 9.14683 2.81625 9.89589 2.56462 10.9494H1.24932C0.945156 10.9494 0.699316 11.1962 0.699316 11.5C0.699316 11.8038 0.945155 12.0506 1.24932 12.0506H2.56462C2.81627 13.1041 3.75919 13.8532 4.84927 13.8532C5.93999 13.8532 6.88292 13.1041 7.13455 12.0506H14.7505C15.054 12.0506 15.2999 11.8045 15.2999 11.5006C15.2999 11.2314 15.1062 11.0074 14.8505 10.9603ZM6.09988 11.4993C6.0993 12.1873 5.54256 12.7459 4.85453 12.7494H4.84927C4.3435 12.7494 3.88808 12.445 3.69416 11.978C3.50087 11.5104 3.60796 10.9727 3.96559 10.6151L3.96565 10.615C4.32266 10.2575 4.86082 10.1504 5.32779 10.3443L5.32793 10.3443C5.79543 10.5376 6.09984 10.9935 6.09988 11.4993Z" fill="#213F7D" stroke="#213F7D" stroke-width="0.2"/>
<path d="M11.6044 8.25051H11.6C11.0942 8.25051 10.6381 7.94552 10.4449 7.47853L10.4448 7.47847C10.251 7.01086 10.358 6.47325 10.7157 6.11561C11.0733 5.75796 11.6109 5.6509 12.0785 5.84478L12.0786 5.8448C12.5455 6.03806 12.8505 6.49401 12.8506 6.99974L11.6044 8.25051ZM11.6044 8.25051C12.2927 8.24689 12.8493 7.68883 12.8506 6.9999L11.6044 8.25051ZM14.8505 6.46084V6.45051H14.7505H13.8852C13.6336 5.39646 12.69 4.64731 11.5999 4.64731C10.5099 4.64731 9.56629 5.39638 9.31464 6.45051H1.24938C0.945397 6.45051 0.699377 6.69653 0.699377 7.00051C0.699377 7.30431 0.945217 7.55114 1.24938 7.55114H9.31466C9.56633 8.60459 10.5098 9.35433 11.5999 9.35433C12.69 9.35433 13.6336 8.60467 13.8852 7.55114H14.7505C15.0539 7.55114 15.2999 7.30512 15.2999 7.00176C15.2999 6.73207 15.1062 6.50789 14.8505 6.46084Z" fill="#213F7D" stroke="#213F7D" stroke-width="0.2"/>
</svg>
