<svg width="20" height="20" viewBox="0 0 20 20" fill="none" xmlns="http://www.w3.org/2000/svg">
<path d="M9.99973 12.7H9.99899C9.86708 12.699 9.74033 12.6454 9.6476 12.5518C9.26706 12.1713 8.55068 11.8843 7.58901 11.7173C6.76269 11.574 5.765 11.5263 4.69989 11.5136L4.69971 15.1347C4.86815 15.2495 5.02826 15.3609 5.18284 15.4684C5.79232 15.8925 6.31582 16.2567 6.92525 16.5346C7.69724 16.8867 8.60871 17.1 9.9997 17.1C10.6622 17.1 11.4591 16.9119 12.2818 16.6228C13.1031 16.3343 13.9435 15.9474 14.6908 15.5552C15.4383 15.163 16.0938 14.7706 16.5625 14.4763C16.7968 14.3291 16.9842 14.2066 17.113 14.1209C17.1774 14.078 17.2271 14.0444 17.2607 14.0215L17.2987 13.9955L17.3042 13.9917L17.311 13.9848L17.3192 13.9793C17.6131 13.7832 17.7604 13.6606 17.8184 13.5794C17.8484 13.5373 17.8667 13.5032 17.8791 13.4535C17.8923 13.4003 17.8998 13.3252 17.8998 13.2C17.8998 13.1548 17.8952 13.1371 17.8916 13.1283C17.8885 13.1207 17.8831 13.1119 17.8608 13.09C17.8285 13.0582 17.7469 13.0139 17.6266 12.9768L17.6265 12.9768C17.3947 12.9051 17.0996 12.9 16.9998 12.9C16.9122 12.9 16.7497 12.9367 16.5515 13.0019C16.3573 13.0659 16.1406 13.1532 15.9498 13.2462C15.7574 13.3398 15.586 13.434 15.4627 13.5048C15.4011 13.5402 15.3516 13.5696 15.3176 13.5902L15.2786 13.614L15.2687 13.6201L15.2667 13.6214L15.2662 13.6217L15.2657 13.622L15.2655 13.6221L15.2655 13.6221L9.99973 12.7ZM9.99973 12.7H13.7997C14.0836 12.7 14.2997 12.9162 14.2997 13.2C14.2997 13.4838 14.0836 13.7 13.7997 13.7H8.00036M9.99973 12.7L8.00036 13.7M8.00036 13.7H7.99973V13.8L8.00036 13.7ZM1.55297 10.1004C1.29527 10.1248 1.09902 10.3415 1.09989 10.6002V16.2C1.09989 16.4763 1.32357 16.7 1.59989 16.7H4.19989C4.42983 16.7 4.6233 16.5451 4.68179 16.3339C5.35942 16.7992 6.00573 17.2291 6.79217 17.5476C7.63387 17.8884 8.6318 18.1 9.99989 18.1C11.669 18.1 13.6095 17.2511 15.1587 16.4386L15.1587 16.4386C16.7048 15.6275 17.8691 14.8226 17.8833 14.8122L17.8898 14.8076L17.8947 14.8027C18.1946 14.6026 18.4426 14.428 18.6311 14.1644L18.6311 14.1644C18.8268 13.8903 18.8997 13.5574 18.8997 13.2C18.8997 12.8717 18.7566 12.572 18.5568 12.3782C18.3609 12.1882 18.1336 12.0817 17.9228 12.0169L17.9228 12.0169C17.531 11.8967 17.1503 11.8991 17.0224 11.8999C17.0136 11.9 17.006 11.9 16.9997 11.9C16.4658 11.9 15.9417 12.1383 15.5121 12.3476C15.3165 12.4427 15.2286 12.4923 15.1393 12.5446C14.8958 12.0476 14.3896 11.7 13.7997 11.7H10.1743C9.56326 11.1815 8.7248 10.9 7.76056 10.7327L7.74346 10.8312L7.76056 10.7327C6.84091 10.5732 5.79118 10.5193 4.69108 10.5071C4.6476 10.2752 4.44426 10.1 4.19966 10.1H1.60255C1.58701 10.0991 1.57146 10.0992 1.55593 10.1002L1.55622 10.1348L1.55297 10.1004ZM13.7997 14.7C14.4633 14.7 15.0026 14.2512 15.1993 13.6576L7.71301 14.4852C7.78958 14.5602 7.8927 14.6016 7.99973 14.6V14.7H8.00036H13.7997ZM12.8 1.9C11.8659 1.9 11.1 2.66587 11.1 3.6C11.1 4.53413 11.8659 5.3 12.8 5.3C13.7341 5.3 14.5 4.53413 14.5 3.6C14.5 2.66587 13.7341 1.9 12.8 1.9ZM12.8 2.9C13.1916 2.9 13.5 3.20835 13.5 3.6C13.5 3.99165 13.1916 4.3 12.8 4.3C12.4083 4.3 12.1 3.99165 12.1 3.6C12.1 3.20835 12.4083 2.9 12.8 2.9ZM8.19999 3.5C6.9346 3.5 5.89999 4.53461 5.89999 5.8C5.89999 7.06539 6.9346 8.1 8.19999 8.1C9.46538 8.1 10.5 7.06539 10.5 5.8C10.5 4.53461 9.46538 3.5 8.19999 3.5ZM8.19999 4.5C8.92288 4.5 9.49999 5.07711 9.49999 5.8C9.49999 6.52289 8.92288 7.1 8.19999 7.1C7.4771 7.1 6.89999 6.52289 6.89999 5.8C6.89999 5.07711 7.4771 4.5 8.19999 4.5ZM14 5.9C12.6237 5.9 11.5 7.02367 11.5 8.4C11.5 9.77633 12.6237 10.9 14 10.9C15.3763 10.9 16.5 9.77633 16.5 8.4C16.5 7.02367 15.3763 5.9 14 5.9ZM14 6.9C14.833 6.9 15.5 7.56695 15.5 8.4C15.5 9.23305 14.833 9.9 14 9.9C13.1669 9.9 12.5 9.23305 12.5 8.4C12.5 7.56695 13.1669 6.9 14 6.9ZM2.09989 11.1H3.69989V15.3975C3.69911 15.4139 3.69911 15.4298 3.69989 15.4462V15.7H2.09989V11.1Z" fill="#213F7D" stroke="#213F7D" stroke-width="0.2"/>
</svg>
