<svg width="14" height="16" viewBox="0 0 14 16" fill="none" xmlns="http://www.w3.org/2000/svg">
<path d="M2.53189 1.16803V2.17177H1.54376C1.07361 2.17177 0.675635 2.55148 0.675635 3.0399V14.8481C0.675635 15.3182 1.05534 15.7162 1.54376 15.7162H10.5838C11.0539 15.7162 11.4519 15.3365 11.4519 14.8481V13.8599H12.4556C12.9258 13.8599 13.3238 13.4802 13.3238 12.9918V1.16813H13.3238L13.3237 1.16451C13.3087 0.750382 13.0284 0.40996 12.6501 0.322073L12.6684 0.299902H12.4563H3.40002C2.92986 0.299902 2.53189 0.679611 2.53189 1.16803ZM10.7564 14.9052C10.7288 14.9654 10.668 15.0036 10.6001 15.0036H1.54378C1.44288 15.0036 1.37191 14.9242 1.37191 14.8317V3.02358C1.37191 2.92268 1.45131 2.85171 1.54378 2.85171H2.53191V12.9917C2.53191 13.4619 2.91162 13.8598 3.40003 13.8598H10.7564V14.8317V14.9052ZM12.6283 12.9761C12.6283 13.0808 12.5449 13.1642 12.4402 13.1642L3.40017 13.1636C3.29539 13.1636 3.21203 13.0802 3.21203 12.9754V1.16792C3.21203 1.06315 3.29539 0.979789 3.40016 0.979789H12.4402C12.5449 0.979789 12.6283 1.06314 12.6283 1.16792V12.9761Z" fill="#213F7D" stroke="#213F7D" stroke-width="0.2"/>
<path d="M6.58836 6.16457L6.59049 6.16715C6.45524 6.30152 6.24853 6.30153 6.11328 6.16715L6.11305 6.16692C5.97775 6.03161 5.97775 5.82455 6.11305 5.68925L6.11386 5.68844L6.11386 5.68844L7.5541 4.28069C7.68942 4.14582 7.89619 4.14596 8.03135 4.28112L8.60064 4.85041L9.61109 3.83996L9.44215 3.67101C9.44208 3.67095 9.44202 3.67088 9.44195 3.67081L9.4418 3.67067L9.51251 3.59996C9.44814 3.53621 9.48001 3.42433 9.57626 3.40808L6.58836 6.16457ZM6.58836 6.16457L6.59072 6.16693L7.76813 4.98951L8.33742 5.5588C8.47273 5.6941 8.67979 5.6941 8.8151 5.5588L8.8151 5.5588L10.0725 4.30138L10.2418 4.47067C10.3036 4.53247 10.3915 4.54445 10.461 4.52367C10.5315 4.50259 10.6007 4.44112 10.6042 4.34414L10.7312 3.42447C10.759 3.27599 10.6345 3.15471 10.4883 3.18123L6.58836 6.16457Z" fill="#213F7D" stroke="#213F7D" stroke-width="0.2"/>
<path d="M10.9718 9.15162H10.9724L10.9713 9.14081C10.9613 9.04939 10.9248 8.96624 10.8612 8.90542C10.7969 8.84405 10.7115 8.81165 10.6163 8.81162C10.6163 8.81162 10.6162 8.81162 10.6162 8.81162H5.24C5.05665 8.81162 4.9 8.96827 4.9 9.15162C4.9 9.33497 5.05665 9.49162 5.24 9.49162H10.6318C10.8152 9.49162 10.9718 9.33497 10.9718 9.15162Z" fill="#213F7D" stroke="#213F7D" stroke-width="0.2"/>
<path d="M10.9718 11.3281H10.9724L10.9713 11.3174C10.9613 11.2257 10.9249 11.1424 10.8611 11.0816C10.7968 11.0203 10.7113 10.9882 10.6163 10.9881C10.6163 10.9881 10.6162 10.9881 10.6162 10.9881H5.24C5.05665 10.9881 4.9 11.1448 4.9 11.3281C4.9 11.5115 5.05665 11.6681 5.24 11.6681H10.6318C10.8152 11.6681 10.9718 11.5115 10.9718 11.3281Z" fill="#213F7D" stroke="#213F7D" stroke-width="0.2"/>
<path d="M10.6163 6.63633C10.6163 6.63633 10.6162 6.63633 10.6162 6.63633H5.58V2.97633C5.58 2.79297 5.42335 2.63633 5.24 2.63633C5.05665 2.63633 4.9 2.79297 4.9 2.97633V6.97633C4.9 7.15968 5.05665 7.31633 5.24 7.31633H10.6318C10.8152 7.31633 10.9718 7.15968 10.9718 6.97633H10.9724L10.9713 6.96557C10.9613 6.87388 10.9249 6.79064 10.8611 6.72983C10.7968 6.66849 10.7113 6.63636 10.6163 6.63633Z" fill="#213F7D" stroke="#213F7D" stroke-width="0.2"/>
</svg>
