<svg width="18" height="18" viewBox="0 0 18 18" fill="none" xmlns="http://www.w3.org/2000/svg">
<mask id="path-1-outside-1" maskUnits="userSpaceOnUse" x="0.445679" y="-0.0998535" width="17" height="18" fill="black">
<rect fill="white" x="0.445679" y="-0.0998535" width="17" height="18"/>
<path d="M14.9879 8.25059C14.9893 8.19856 14.9928 8.14723 14.9928 8.0952C14.9928 6.14688 13.8875 4.32294 12.2507 3.3027C12.4574 2.6263 12.6276 1.9274 12.8132 1.24116C12.835 1.1603 12.8181 1.07312 12.7668 1.00632C12.7162 0.939522 12.6367 0.900146 12.5524 0.900146H9.46139C9.37702 0.900146 9.29827 0.939522 9.24694 1.00632C9.19561 1.07311 9.17874 1.1596 9.20053 1.24116L9.7567 3.30486C8.06286 4.33986 7.01944 6.15678 7.01944 8.0952C7.01944 8.46505 7.056 8.82996 7.12913 9.18575H7.02999C6.61865 9.18575 6.22843 9.34185 5.931 9.62591L4.70896 10.7945C4.54443 10.708 4.36021 10.6616 4.16755 10.6616C3.8617 10.6616 3.57341 10.779 3.35615 10.9914L1.7938 12.5207C1.57302 12.7365 1.44927 13.0269 1.44576 13.3377C1.44224 13.6485 1.55966 13.941 1.77552 14.1618L4.31244 16.7534C4.53182 16.9763 4.82643 17.1 5.14213 17.1C5.44798 17.1 5.73627 16.9826 5.95353 16.7703L7.51588 15.241C7.73667 15.0251 7.86042 14.7347 7.86393 14.424C7.86603 14.2397 7.82455 14.0625 7.7465 13.9022L7.80768 13.8565C8.11494 13.6287 8.47917 13.5085 8.86026 13.5085H11.2663C11.8745 13.5085 12.4673 13.299 12.9362 12.9186L14.2757 11.8344C14.3277 11.7992 14.3783 11.7591 14.4297 11.7099C14.4318 11.7085 14.4325 11.7064 14.4346 11.705C14.4416 11.698 14.4501 11.6923 14.4571 11.6846L16.3478 9.6695C16.4821 9.52536 16.5559 9.33761 16.5559 9.14075C16.5559 8.92981 16.468 8.7252 16.3126 8.57614C15.9449 8.23373 15.4415 8.12825 14.988 8.25059L14.9879 8.25059ZM12.2001 1.44011L11.7346 3.16207H10.2777L9.81366 1.44011H12.2001ZM7.55949 8.09453C7.55949 6.30368 8.55019 4.62737 10.1463 3.70217H11.8633C13.4615 4.62538 14.453 6.30155 14.453 8.09453C14.453 8.24711 14.4438 8.39899 14.4291 8.54875C14.396 8.57758 14.3644 8.60781 14.3334 8.64015L13.4313 9.60274L13.2344 9.72157C13.233 9.72227 13.2323 9.72368 13.2309 9.72438C13.2295 9.72508 13.2281 9.72579 13.2267 9.72649L12.6291 10.1146C12.4434 9.9086 12.1762 9.77851 11.8781 9.77851L9.79965 9.77921L9.37145 9.47687C9.10215 9.28562 8.78435 9.18437 8.45387 9.18437H7.68325C7.60239 8.8314 7.5595 8.46577 7.5595 8.09452L7.55949 8.09453ZM7.1376 14.8552L5.57526 16.3845C5.33971 16.6151 4.92837 16.6109 4.69846 16.3753L2.16154 13.783C2.04623 13.6655 1.98365 13.5087 1.98576 13.3421C1.98787 13.1755 2.05326 13.0208 2.17067 12.9055L3.73302 11.3762C3.84903 11.2629 4.00302 11.2004 4.16685 11.2004C4.3356 11.2004 4.4931 11.2665 4.61052 11.3853L7.14744 13.9769C7.26275 14.0943 7.32533 14.2511 7.32322 14.4178C7.32181 14.5844 7.25572 14.7398 7.1376 14.8551V14.8552ZM15.952 9.30179L14.0746 11.3029L13.9284 11.421C13.9206 11.4266 13.9129 11.4329 13.9059 11.4393L12.5953 12.5003C12.2219 12.8033 11.7494 12.9693 11.2649 12.9693H8.85889C8.3681 12.9693 7.88014 13.1303 7.48428 13.4235L7.41256 13.4769L5.12602 11.1411L6.30306 10.0153C6.49923 9.82831 6.75657 9.72495 7.02868 9.72495H8.45322C8.66837 9.72495 8.88282 9.79316 9.05861 9.91831L9.55712 10.2699C9.55782 10.2706 9.55853 10.2706 9.55993 10.2713C9.57048 10.2783 9.58173 10.2839 9.59298 10.2896C9.5972 10.2917 9.60212 10.2945 9.60634 10.2966C9.61689 10.3008 9.62743 10.3036 9.63798 10.3071C9.64431 10.3092 9.65063 10.3114 9.65696 10.3128C9.6647 10.3142 9.67243 10.3149 9.68017 10.3156C9.69001 10.317 9.70056 10.3184 9.7104 10.3184C9.71181 10.3184 9.71251 10.3191 9.71321 10.3191L11.8774 10.3184C12.1375 10.3184 12.3492 10.53 12.3492 10.7902C12.3492 11.0503 12.1375 11.262 11.8774 11.262H9.39245C9.24339 11.262 9.12245 11.3829 9.12245 11.532C9.12245 11.681 9.24339 11.802 9.39245 11.802H11.8781C12.4364 11.802 12.8899 11.3478 12.8899 10.7902C12.8899 10.7255 12.8835 10.6622 12.8716 10.6003L13.5192 10.1792L13.7407 10.0456C13.7604 10.0336 13.7772 10.0189 13.7927 10.0034C13.7948 10.0013 13.7969 10.0006 13.799 9.99917L14.7271 9.00917C14.7658 8.96769 14.8087 8.93183 14.853 8.89948C14.8537 8.89878 14.8544 8.89808 14.8558 8.89737C15.1821 8.66534 15.6391 8.68573 15.94 8.96768C15.9885 9.01409 16.0146 9.07526 16.0146 9.13995C16.0146 9.18354 16.004 9.24612 15.952 9.30167L15.952 9.30179Z"/>
</mask>
<path d="M14.9879 8.25059C14.9893 8.19856 14.9928 8.14723 14.9928 8.0952C14.9928 6.14688 13.8875 4.32294 12.2507 3.3027C12.4574 2.6263 12.6276 1.9274 12.8132 1.24116C12.835 1.1603 12.8181 1.07312 12.7668 1.00632C12.7162 0.939522 12.6367 0.900146 12.5524 0.900146H9.46139C9.37702 0.900146 9.29827 0.939522 9.24694 1.00632C9.19561 1.07311 9.17874 1.1596 9.20053 1.24116L9.7567 3.30486C8.06286 4.33986 7.01944 6.15678 7.01944 8.0952C7.01944 8.46505 7.056 8.82996 7.12913 9.18575H7.02999C6.61865 9.18575 6.22843 9.34185 5.931 9.62591L4.70896 10.7945C4.54443 10.708 4.36021 10.6616 4.16755 10.6616C3.8617 10.6616 3.57341 10.779 3.35615 10.9914L1.7938 12.5207C1.57302 12.7365 1.44927 13.0269 1.44576 13.3377C1.44224 13.6485 1.55966 13.941 1.77552 14.1618L4.31244 16.7534C4.53182 16.9763 4.82643 17.1 5.14213 17.1C5.44798 17.1 5.73627 16.9826 5.95353 16.7703L7.51588 15.241C7.73667 15.0251 7.86042 14.7347 7.86393 14.424C7.86603 14.2397 7.82455 14.0625 7.7465 13.9022L7.80768 13.8565C8.11494 13.6287 8.47917 13.5085 8.86026 13.5085H11.2663C11.8745 13.5085 12.4673 13.299 12.9362 12.9186L14.2757 11.8344C14.3277 11.7992 14.3783 11.7591 14.4297 11.7099C14.4318 11.7085 14.4325 11.7064 14.4346 11.705C14.4416 11.698 14.4501 11.6923 14.4571 11.6846L16.3478 9.6695C16.4821 9.52536 16.5559 9.33761 16.5559 9.14075C16.5559 8.92981 16.468 8.7252 16.3126 8.57614C15.9449 8.23373 15.4415 8.12825 14.988 8.25059L14.9879 8.25059ZM12.2001 1.44011L11.7346 3.16207H10.2777L9.81366 1.44011H12.2001ZM7.55949 8.09453C7.55949 6.30368 8.55019 4.62737 10.1463 3.70217H11.8633C13.4615 4.62538 14.453 6.30155 14.453 8.09453C14.453 8.24711 14.4438 8.39899 14.4291 8.54875C14.396 8.57758 14.3644 8.60781 14.3334 8.64015L13.4313 9.60274L13.2344 9.72157C13.233 9.72227 13.2323 9.72368 13.2309 9.72438C13.2295 9.72508 13.2281 9.72579 13.2267 9.72649L12.6291 10.1146C12.4434 9.9086 12.1762 9.77851 11.8781 9.77851L9.79965 9.77921L9.37145 9.47687C9.10215 9.28562 8.78435 9.18437 8.45387 9.18437H7.68325C7.60239 8.8314 7.5595 8.46577 7.5595 8.09452L7.55949 8.09453ZM7.1376 14.8552L5.57526 16.3845C5.33971 16.6151 4.92837 16.6109 4.69846 16.3753L2.16154 13.783C2.04623 13.6655 1.98365 13.5087 1.98576 13.3421C1.98787 13.1755 2.05326 13.0208 2.17067 12.9055L3.73302 11.3762C3.84903 11.2629 4.00302 11.2004 4.16685 11.2004C4.3356 11.2004 4.4931 11.2665 4.61052 11.3853L7.14744 13.9769C7.26275 14.0943 7.32533 14.2511 7.32322 14.4178C7.32181 14.5844 7.25572 14.7398 7.1376 14.8551V14.8552ZM15.952 9.30179L14.0746 11.3029L13.9284 11.421C13.9206 11.4266 13.9129 11.4329 13.9059 11.4393L12.5953 12.5003C12.2219 12.8033 11.7494 12.9693 11.2649 12.9693H8.85889C8.3681 12.9693 7.88014 13.1303 7.48428 13.4235L7.41256 13.4769L5.12602 11.1411L6.30306 10.0153C6.49923 9.82831 6.75657 9.72495 7.02868 9.72495H8.45322C8.66837 9.72495 8.88282 9.79316 9.05861 9.91831L9.55712 10.2699C9.55782 10.2706 9.55853 10.2706 9.55993 10.2713C9.57048 10.2783 9.58173 10.2839 9.59298 10.2896C9.5972 10.2917 9.60212 10.2945 9.60634 10.2966C9.61689 10.3008 9.62743 10.3036 9.63798 10.3071C9.64431 10.3092 9.65063 10.3114 9.65696 10.3128C9.6647 10.3142 9.67243 10.3149 9.68017 10.3156C9.69001 10.317 9.70056 10.3184 9.7104 10.3184C9.71181 10.3184 9.71251 10.3191 9.71321 10.3191L11.8774 10.3184C12.1375 10.3184 12.3492 10.53 12.3492 10.7902C12.3492 11.0503 12.1375 11.262 11.8774 11.262H9.39245C9.24339 11.262 9.12245 11.3829 9.12245 11.532C9.12245 11.681 9.24339 11.802 9.39245 11.802H11.8781C12.4364 11.802 12.8899 11.3478 12.8899 10.7902C12.8899 10.7255 12.8835 10.6622 12.8716 10.6003L13.5192 10.1792L13.7407 10.0456C13.7604 10.0336 13.7772 10.0189 13.7927 10.0034C13.7948 10.0013 13.7969 10.0006 13.799 9.99917L14.7271 9.00917C14.7658 8.96769 14.8087 8.93183 14.853 8.89948C14.8537 8.89878 14.8544 8.89808 14.8558 8.89737C15.1821 8.66534 15.6391 8.68573 15.94 8.96768C15.9885 9.01409 16.0146 9.07526 16.0146 9.13995C16.0146 9.18354 16.004 9.24612 15.952 9.30167L15.952 9.30179Z" fill="#213F7D"/>
<path d="M14.9879 8.25059C14.9893 8.19856 14.9928 8.14723 14.9928 8.0952C14.9928 6.14688 13.8875 4.32294 12.2507 3.3027C12.4574 2.6263 12.6276 1.9274 12.8132 1.24116C12.835 1.1603 12.8181 1.07312 12.7668 1.00632C12.7162 0.939522 12.6367 0.900146 12.5524 0.900146H9.46139C9.37702 0.900146 9.29827 0.939522 9.24694 1.00632C9.19561 1.07311 9.17874 1.1596 9.20053 1.24116L9.7567 3.30486C8.06286 4.33986 7.01944 6.15678 7.01944 8.0952C7.01944 8.46505 7.056 8.82996 7.12913 9.18575H7.02999C6.61865 9.18575 6.22843 9.34185 5.931 9.62591L4.70896 10.7945C4.54443 10.708 4.36021 10.6616 4.16755 10.6616C3.8617 10.6616 3.57341 10.779 3.35615 10.9914L1.7938 12.5207C1.57302 12.7365 1.44927 13.0269 1.44576 13.3377C1.44224 13.6485 1.55966 13.941 1.77552 14.1618L4.31244 16.7534C4.53182 16.9763 4.82643 17.1 5.14213 17.1C5.44798 17.1 5.73627 16.9826 5.95353 16.7703L7.51588 15.241C7.73667 15.0251 7.86042 14.7347 7.86393 14.424C7.86603 14.2397 7.82455 14.0625 7.7465 13.9022L7.80768 13.8565C8.11494 13.6287 8.47917 13.5085 8.86026 13.5085H11.2663C11.8745 13.5085 12.4673 13.299 12.9362 12.9186L14.2757 11.8344C14.3277 11.7992 14.3783 11.7591 14.4297 11.7099C14.4318 11.7085 14.4325 11.7064 14.4346 11.705C14.4416 11.698 14.4501 11.6923 14.4571 11.6846L16.3478 9.6695C16.4821 9.52536 16.5559 9.33761 16.5559 9.14075C16.5559 8.92981 16.468 8.7252 16.3126 8.57614C15.9449 8.23373 15.4415 8.12825 14.988 8.25059L14.9879 8.25059ZM12.2001 1.44011L11.7346 3.16207H10.2777L9.81366 1.44011H12.2001ZM7.55949 8.09453C7.55949 6.30368 8.55019 4.62737 10.1463 3.70217H11.8633C13.4615 4.62538 14.453 6.30155 14.453 8.09453C14.453 8.24711 14.4438 8.39899 14.4291 8.54875C14.396 8.57758 14.3644 8.60781 14.3334 8.64015L13.4313 9.60274L13.2344 9.72157C13.233 9.72227 13.2323 9.72368 13.2309 9.72438C13.2295 9.72508 13.2281 9.72579 13.2267 9.72649L12.6291 10.1146C12.4434 9.9086 12.1762 9.77851 11.8781 9.77851L9.79965 9.77921L9.37145 9.47687C9.10215 9.28562 8.78435 9.18437 8.45387 9.18437H7.68325C7.60239 8.8314 7.5595 8.46577 7.5595 8.09452L7.55949 8.09453ZM7.1376 14.8552L5.57526 16.3845C5.33971 16.6151 4.92837 16.6109 4.69846 16.3753L2.16154 13.783C2.04623 13.6655 1.98365 13.5087 1.98576 13.3421C1.98787 13.1755 2.05326 13.0208 2.17067 12.9055L3.73302 11.3762C3.84903 11.2629 4.00302 11.2004 4.16685 11.2004C4.3356 11.2004 4.4931 11.2665 4.61052 11.3853L7.14744 13.9769C7.26275 14.0943 7.32533 14.2511 7.32322 14.4178C7.32181 14.5844 7.25572 14.7398 7.1376 14.8551V14.8552ZM15.952 9.30179L14.0746 11.3029L13.9284 11.421C13.9206 11.4266 13.9129 11.4329 13.9059 11.4393L12.5953 12.5003C12.2219 12.8033 11.7494 12.9693 11.2649 12.9693H8.85889C8.3681 12.9693 7.88014 13.1303 7.48428 13.4235L7.41256 13.4769L5.12602 11.1411L6.30306 10.0153C6.49923 9.82831 6.75657 9.72495 7.02868 9.72495H8.45322C8.66837 9.72495 8.88282 9.79316 9.05861 9.91831L9.55712 10.2699C9.55782 10.2706 9.55853 10.2706 9.55993 10.2713C9.57048 10.2783 9.58173 10.2839 9.59298 10.2896C9.5972 10.2917 9.60212 10.2945 9.60634 10.2966C9.61689 10.3008 9.62743 10.3036 9.63798 10.3071C9.64431 10.3092 9.65063 10.3114 9.65696 10.3128C9.6647 10.3142 9.67243 10.3149 9.68017 10.3156C9.69001 10.317 9.70056 10.3184 9.7104 10.3184C9.71181 10.3184 9.71251 10.3191 9.71321 10.3191L11.8774 10.3184C12.1375 10.3184 12.3492 10.53 12.3492 10.7902C12.3492 11.0503 12.1375 11.262 11.8774 11.262H9.39245C9.24339 11.262 9.12245 11.3829 9.12245 11.532C9.12245 11.681 9.24339 11.802 9.39245 11.802H11.8781C12.4364 11.802 12.8899 11.3478 12.8899 10.7902C12.8899 10.7255 12.8835 10.6622 12.8716 10.6003L13.5192 10.1792L13.7407 10.0456C13.7604 10.0336 13.7772 10.0189 13.7927 10.0034C13.7948 10.0013 13.7969 10.0006 13.799 9.99917L14.7271 9.00917C14.7658 8.96769 14.8087 8.93183 14.853 8.89948C14.8537 8.89878 14.8544 8.89808 14.8558 8.89737C15.1821 8.66534 15.6391 8.68573 15.94 8.96768C15.9885 9.01409 16.0146 9.07526 16.0146 9.13995C16.0146 9.18354 16.004 9.24612 15.952 9.30167L15.952 9.30179Z" stroke="#213F7D" stroke-width="0.6" mask="url(#path-1-outside-1)"/>
</svg>
