<svg width="16" height="14" viewBox="0 0 16 14" fill="none" xmlns="http://www.w3.org/2000/svg">
<path d="M14.3034 6.15176C13.4472 6.86412 12.2953 7.12502 11.2093 6.84239L10.2521 7.79955L13.9158 11.4632C13.9945 11.542 14.0388 11.6486 14.0388 11.7602C14.0388 11.8719 13.9945 11.9783 13.9162 12.0574L13.7451 12.2303V12.2279L12.4452 13.5278C12.3664 13.6065 12.2598 13.6508 12.1482 13.6508C12.0366 13.6508 11.9299 13.6065 11.8512 13.5278L11.8512 13.5278L8.1875 9.86108L4.39393 13.6529C4.31521 13.7316 4.20854 13.776 4.09696 13.776C3.98539 13.776 3.87871 13.7316 3.8 13.6529L2.32937 12.1823L2.40008 12.1116L2.32937 12.1823C2.25066 12.1036 2.20633 11.9969 2.20633 11.8853C2.20633 11.7737 2.25066 11.6671 2.32937 11.5884L2.32941 11.5883L6.1219 7.80007L5.13994 6.82925C3.89883 7.36089 2.5334 7.07758 1.51998 6.06416L1.51988 6.06406C0.417149 4.95819 0.169458 3.45781 0.888677 2.14851L0.976324 2.19665L0.888418 2.14898C0.9519 2.03192 1.06703 1.95334 1.19773 1.93455L1.19825 1.93448L1.19825 1.93448C1.32824 1.91649 1.46032 1.95975 1.55408 2.05423C1.55413 2.05428 1.55417 2.05433 1.55422 2.05438L2.86771 3.36971L3.39734 3.36081L3.40625 2.83234L2.0925 1.51674L14.3034 6.15176ZM14.3034 6.15176L14.2999 6.17583L14.5126 5.96313C15.6303 4.84545 15.8228 3.28973 15.008 1.91332L14.8219 1.59905V1.74546C14.7834 1.72764 14.742 1.71555 14.6989 1.71006L14.6989 1.71005C14.5694 1.69367 14.4405 1.73796 14.3487 1.8298L13.0331 3.14355L12.5046 3.13465L12.4957 2.60502L13.8111 1.29153C13.8111 1.29152 13.8111 1.29152 13.8111 1.29151C13.9057 1.19775 13.949 1.0656 13.931 0.935553L13.9309 0.935032C13.9121 0.804108 13.8328 0.689322 13.7169 0.625981C13.7169 0.625943 13.7168 0.625904 13.7167 0.625865L13.6688 0.713628M14.3034 6.15176L8.18713 5.73792L8.25785 5.80863L9.15512 4.8992M13.6688 0.713628C12.4013 0.0173724 10.9488 0.254252 9.872 1.328C8.86888 2.33112 8.60449 3.68176 9.15512 4.8992M13.6688 0.713628C13.7569 0.761756 13.8175 0.84926 13.8319 0.94926L13.6688 0.713628ZM9.15512 4.8992L9.08393 4.82896L9.03623 4.87732C9.04525 4.89838 9.05451 4.91941 9.064 4.94041L9.15512 4.8992ZM5.02749 5.94061L5.02763 5.94054C5.19106 5.85267 5.39285 5.88305 5.52334 6.01428C5.52337 6.01431 5.5234 6.01434 5.52343 6.01437L12.1475 12.6359L13.0236 11.7599L6.32936 5.06867L6.3286 5.06789C6.21554 4.9524 6.17863 4.78211 6.23405 4.62983C6.39522 4.17249 6.42587 3.67903 6.32296 3.20478C6.22137 2.73667 5.99378 2.30553 5.66452 1.95819L5.65253 1.94622C4.93519 1.23008 4.02385 1.02002 3.12763 1.3374L4.13949 2.35661C4.13952 2.35664 4.13955 2.35667 4.13958 2.3567C4.22039 2.43756 4.26352 2.54751 4.26189 2.66063L4.26048 2.75919H4.25972L4.24378 3.7719C4.24356 3.88318 4.19926 3.98951 4.12074 4.06803C4.04224 4.14653 3.93594 4.19082 3.82471 4.19107L2.7055 4.21043L2.70521 4.21043C2.59106 4.21208 2.48136 4.16695 2.40119 4.08678L2.40093 4.08652L1.4066 3.08492C1.18575 3.90479 1.42991 4.77642 2.11381 5.46035C2.11383 5.46037 2.11384 5.46038 2.11386 5.4604M5.02749 5.94061L2.04315 5.53111L2.11386 5.4604M5.02749 5.94061C4.05458 6.46574 2.94023 6.28563 2.11386 5.4604M5.02749 5.94061L2.11386 5.4604M7.10546 4.65625C7.41174 3.47938 7.07973 2.22508 6.22658 1.35356L6.22658 1.35356L6.22583 1.35281C5.10815 0.235127 3.55243 0.0426149 2.17601 0.857465L1.86174 1.04352H2.00816C1.99033 1.08201 1.97825 1.12341 1.97276 1.16651C1.95635 1.29532 2.00061 1.42482 2.09245 1.51669L7.10546 4.65625ZM15.0219 2.14396V1.96489V1.96426H14.923L15.0219 2.14396ZM14.8219 1.85965C14.7816 1.83301 14.7354 1.81551 14.6863 1.80926C14.5876 1.79676 14.4894 1.83051 14.4194 1.90051L14.8219 1.85965ZM8.78149 6.32922L9.67941 5.43131V5.43193L9.85012 5.26122C9.9814 5.12994 10.0108 4.92891 9.92321 4.76521L9.92272 4.76431C9.3908 3.79393 9.57642 2.6786 10.402 1.85301C11.0862 1.16882 11.9565 0.923195 12.7776 1.14558L11.7759 2.14009L11.7756 2.14034C11.6954 2.22051 11.6503 2.33021 11.652 2.44437L11.652 2.44466L11.6713 3.56293C11.6713 3.56323 11.6713 3.56353 11.6713 3.56383C11.6716 3.67507 11.7159 3.78139 11.7944 3.85989C11.8729 3.93838 11.9791 3.98267 12.0903 3.98293L13.2095 4.00354L13.2099 4.00355C13.3264 4.0052 13.4372 3.95546 13.5133 3.86802L14.53 2.85867C14.8472 3.75506 14.639 4.67599 13.9223 5.40989C13.2352 6.04016 12.1564 6.32581 11.2369 6.00115C11.0916 5.9384 10.9238 5.96276 10.802 6.0634L10.8332 6.10494L10.7968 6.06855L9.65936 7.20601L8.78149 6.32922ZM4.1026 12.7609L3.22652 11.8849L6.72008 8.39375L7.59617 9.26984L4.1026 12.7609Z" fill="#213F7D" stroke="#213F7D" stroke-width="0.2"/>
</svg>
