<svg width="16" height="16" viewBox="0 0 16 16" fill="none" xmlns="http://www.w3.org/2000/svg">
<path d="M14.7495 9.19986C14.9396 9.20029 15.1264 9.16302 15.2999 9.09181M14.7495 9.19986L14.7499 8.99986V9.19986H14.7495ZM14.7495 9.19986H9.69999M15.2999 9.09181L9.69999 8.99986V9.19986M15.2999 9.09181V14.2499C15.2999 14.5537 15.0539 14.7998 14.7501 14.7999C14.75 14.7999 14.75 14.7999 14.7499 14.7999H1.25006C0.946153 14.7999 0.700064 14.5538 0.700064 14.2499V9.09181C0.873529 9.16302 1.06038 9.20029 1.25052 9.19986M15.2999 9.09181L0.700064 8.8726C0.870292 8.95617 1.05829 9.0003 1.25006 8.99986M9.69999 9.19986H9.49999V9.24986C9.49999 9.31611 9.47375 9.37986 9.42687 9.42674C9.37999 9.47361 9.31624 9.49986 9.24999 9.49986H6.74999C6.68373 9.49986 6.61998 9.47362 6.57311 9.42674C6.52623 9.37986 6.49998 9.31611 6.49998 9.24986V9.19986H6.29998M9.69999 9.19986V9.24986C9.69999 9.36884 9.6529 9.48356 9.56828 9.56816C9.48369 9.65275 9.36898 9.69986 9.24999 9.69986H6.74999C6.631 9.69986 6.51629 9.65277 6.43168 9.56815C6.34709 9.48355 6.29998 9.36885 6.29998 9.24986V9.19986M6.29998 9.19986V8.99986H1.25006M6.29998 9.19986H1.25052M1.25052 9.19986L1.25006 8.99986M1.25052 9.19986H1.25006V8.99986M11.0047 3.62373L11.0045 3.62361C10.8184 3.53056 10.7005 3.34025 10.7 3.13204V2.25C10.7 1.86565 10.547 1.49667 10.2752 1.22483C10.0034 0.953003 9.63439 0.8 9.25003 0.8H6.75003C5.94895 0.8 5.30003 1.44892 5.30003 2.25L5.30003 3.1333C5.30003 3.13337 5.30003 3.13344 5.30003 3.1335C5.2995 3.34161 5.18163 3.53183 4.99558 3.62486L4.6442 3.8H1.25C0.448919 3.8 -0.2 4.44892 -0.2 5.25V14.25C-0.2 14.6343 -0.047013 15.0033 0.224835 15.2752C0.496664 15.547 0.865644 15.7 1.25 15.7H14.75C15.1343 15.7 15.5033 15.547 15.7752 15.2752C16.047 15.0033 16.2 14.6344 16.2 14.25V5.25C16.2 4.86565 16.047 4.49667 15.7752 4.22483C15.5034 3.95302 15.1344 3.80002 14.7501 3.8C14.75 3.8 14.75 3.8 14.75 3.8H11.3561L11.0047 3.62373ZM9.79998 3.13413C9.80044 3.36793 9.85761 3.59619 9.96409 3.8H6.03603C6.11217 3.65437 6.16308 3.49629 6.18602 3.3325H6.19998V3.1325V2.25C6.19998 1.94609 6.44607 1.7 6.74998 1.7H9.24998C9.55389 1.7 9.79998 1.94609 9.79998 2.25L9.79998 3.13374L9.79998 3.13413ZM14.75 8.29994H9.70006V8.24994C9.70006 8.13094 9.65296 8.01624 9.56837 7.93164C9.48376 7.84703 9.36904 7.79993 9.25006 7.79993H6.75006C6.50148 7.79993 6.30006 8.00135 6.30006 8.24993V8.29993H1.25014C0.946228 8.29993 0.700139 8.05384 0.700139 7.74993V7.74992L0.699984 5.24994C0.699984 5.24993 0.699984 5.24993 0.699984 5.24992C0.699991 4.94602 0.946077 4.69994 1.24998 4.69994H14.75C15.0539 4.69994 15.3 4.94602 15.3 5.24994V7.74994C15.3 8.05385 15.0539 8.29994 14.75 8.29994ZM7.19998 8.69986H8.79998V8.79986H7.19998V8.69986Z" fill="#213F7D" stroke="#213F7D" stroke-width="0.4"/>
</svg>
